<?xml version="1.0" encoding="UTF-8"?>
<svg version="1.1" xmlns="http://www.w3.org/2000/svg" width="512" height="512">
<path d="M0 0 C0.97441615 -0.00352835 0.97441615 -0.00352835 1.96851748 -0.00712797 C4.14837884 -0.01379245 6.32818024 -0.01336052 8.50805092 -0.01294994 C10.08560006 -0.01625018 11.66314837 -0.01997608 13.2406956 -0.02409142 C17.57864527 -0.03410172 21.9165811 -0.03782667 26.25454068 -0.04048073 C30.93236264 -0.04438675 35.61017368 -0.05396499 40.28798866 -0.0626936 C51.58752057 -0.08245119 62.88705337 -0.09252402 74.18659824 -0.10142139 C79.51032916 -0.10580606 84.83405909 -0.11117246 90.15778923 -0.11641026 C107.86026172 -0.133423 125.5627336 -0.14791604 143.26521301 -0.155159 C147.85857964 -0.15706884 152.45194627 -0.15898917 157.04531288 -0.16094494 C158.18694679 -0.16142868 159.3285807 -0.16191242 160.50480957 -0.16241082 C178.98865491 -0.17070687 197.47243544 -0.19603641 215.9562525 -0.22852562 C234.94182287 -0.26162407 253.92736033 -0.27961034 272.91295969 -0.28280324 C283.56909111 -0.28496592 294.22512806 -0.29367897 304.88123131 -0.31926441 C313.95879744 -0.34100959 323.03624616 -0.34900312 332.11383538 -0.33929763 C336.74152914 -0.33476379 341.36898085 -0.33658557 345.99664116 -0.35605907 C350.24223419 -0.37376965 354.48741003 -0.37262961 358.73300798 -0.35716178 C360.26003832 -0.3547976 361.78709816 -0.35904674 363.31408362 -0.37099043 C376.44153282 -0.46721935 388.86390419 1.59713855 400.61709023 7.75922108 C401.27580116 8.09840565 401.9345121 8.43759022 402.61318398 8.78705311 C421.35411644 18.84305248 433.15868202 35.86722206 439.48427773 55.78656483 C440.92515323 60.8891694 441.55559226 65.39028319 441.5638113 70.70463085 C441.56616353 71.35424162 441.56851576 72.00385239 441.57093927 72.67314833 C441.57760375 74.8530097 441.57717182 77.0328111 441.57676125 79.21268177 C441.58006148 80.79023092 441.58378738 82.36777922 441.58790272 83.94532645 C441.59791302 88.28327612 441.60163797 92.62121195 441.60429204 96.95917153 C441.60819805 101.6369935 441.61777629 106.31480453 441.6265049 110.99261951 C441.64626249 122.29215143 441.65633533 133.59168423 441.66523269 144.89122909 C441.66961736 150.21496002 441.67498377 155.53868994 441.68022156 160.86242008 C441.6972343 178.56489258 441.71172734 196.26736445 441.7189703 213.96984386 C441.72088014 218.5632105 441.72280048 223.15657712 441.72475624 227.74994373 C441.72523998 228.89157764 441.72572372 230.03321155 441.72622212 231.20944043 C441.73451817 249.69328576 441.75984771 268.1770663 441.79233692 286.66088335 C441.82543537 305.64645372 441.84342164 324.63199118 441.84661454 343.61759055 C441.84877722 354.27372196 441.85749027 364.92975891 441.88307571 375.58586216 C441.90482089 384.66342829 441.91281442 393.74087701 441.90310893 402.81846623 C441.89857509 407.44615999 441.90039687 412.07361171 441.91987038 416.70127201 C441.93758095 420.94686505 441.93644092 425.19204088 441.92097308 429.43763883 C441.9186089 430.96466917 441.92285804 432.49172901 441.93480173 434.01871447 C442.07965577 453.77955264 436.36694779 470.96524473 423.42959023 486.13422108 C422.79150429 486.9617992 422.15341835 487.78937733 421.49599648 488.64203358 C410.81715684 501.52123903 393.62438406 509.37791439 377.42959023 512.13422108 C375.24092719 512.22616719 373.04977136 512.26505424 370.85918045 512.26844215 C369.8847643 512.2719705 369.8847643 512.2719705 368.89066297 512.27557012 C366.71080161 512.2822346 364.53100021 512.28180267 362.35112953 512.2813921 C360.77358039 512.28469233 359.19603208 512.28841823 357.61848485 512.29253358 C353.28053518 512.30254388 348.94259935 512.30626882 344.60463977 512.30892289 C339.92681781 512.3128289 335.24900677 512.32240714 330.57119179 512.33113575 C319.27165988 512.35089334 307.97212708 512.36096618 296.67258221 512.36986354 C291.34885129 512.37424822 286.02512136 512.37961462 280.70139122 512.38485241 C262.99891873 512.40186515 245.29644685 512.41635819 227.59396744 512.42360115 C223.00060081 512.42551099 218.40723418 512.42743133 213.81386757 512.42938709 C212.67223366 512.42987083 211.53059975 512.43035457 210.35437088 512.43085297 C191.87052554 512.43914902 173.38674501 512.46447856 154.90292795 512.49696777 C135.91735759 512.53006622 116.93182012 512.54805249 97.94622076 512.55124539 C87.29008934 512.55340807 76.63405239 512.56212112 65.97794914 512.58770657 C56.90038301 512.60945174 47.82293429 512.61744527 38.74534507 512.60773978 C34.11765131 512.60320595 29.4901996 512.60502772 24.86253929 512.62450123 C20.61694626 512.64221181 16.37177042 512.64107177 12.12617247 512.62560394 C10.59914213 512.62323975 9.07208229 512.6274889 7.54509683 512.63943259 C-12.21574134 512.78428662 -29.40143343 507.07157864 -44.57040977 494.13422108 C-45.39669884 493.49871326 -46.2229879 492.86320545 -47.07431602 492.20843983 C-59.86690263 481.57798054 -67.87490271 464.34074762 -70.57040977 448.13422108 C-70.66235589 445.94555804 -70.70124294 443.75440221 -70.70463085 441.5638113 C-70.70698308 440.91420053 -70.70933531 440.26458976 -70.71175882 439.59529382 C-70.7184233 437.41543246 -70.71799137 435.23563106 -70.7175808 433.05576038 C-70.72088103 431.47821124 -70.72460693 429.90066294 -70.72872227 428.32311571 C-70.73873257 423.98516604 -70.74245752 419.6472302 -70.74511158 415.30927062 C-70.7490176 410.63144866 -70.75859584 405.95363762 -70.76732445 401.27582264 C-70.78708204 389.97629073 -70.79715488 378.67675793 -70.80605224 367.37721306 C-70.81043691 362.05348214 -70.81580332 356.72975221 -70.82104111 351.40602207 C-70.83805385 333.70354958 -70.85254689 316.0010777 -70.85978985 298.29859829 C-70.86169969 293.70523166 -70.86362003 289.11186503 -70.86557579 284.51849842 C-70.86605953 283.37686451 -70.86654327 282.2352306 -70.86704167 281.05900173 C-70.87533772 262.57515639 -70.90066726 244.09137586 -70.93315647 225.6075588 C-70.96625492 206.62198844 -70.98424119 187.63645097 -70.98743409 168.65085161 C-70.98959677 157.9947202 -70.99830982 147.33868325 -71.02389526 136.68257999 C-71.04564044 127.60501387 -71.05363397 118.52756514 -71.04392848 109.44997592 C-71.03939464 104.82228216 -71.04121642 100.19483045 -71.06068993 95.56717014 C-71.0784005 91.32157711 -71.07726047 87.07640127 -71.06179263 82.83080332 C-71.05942845 81.30377298 -71.06367759 79.77671314 -71.07562128 78.24972768 C-71.1718502 65.12227848 -69.1074923 52.69990711 -62.94540977 40.94672108 C-62.6062252 40.28801014 -62.26704063 39.6292992 -61.91757774 38.95062733 C-51.86157837 20.20969486 -34.8374088 8.40512928 -14.91806602 2.07953358 C-9.81546145 0.63865807 -5.31434766 0.00821904 0 0 Z " fill="#FF5A5F" transform="translate(70.57040977478027,-0.13422107696533203)"/>
<path d="M0 0 C10.41879999 6.43773754 15.44899194 14.99482397 20.73779297 25.58496094 C21.47797308 27.02748036 22.22018976 28.46895645 22.96435547 29.90942383 C24.44089327 32.77430024 25.90650661 35.6443029 27.36181641 38.52001953 C29.52097998 42.78252166 31.73799552 47.01336789 33.96508789 51.24072266 C35.89270748 54.90471503 37.79749155 58.58037847 39.70214844 62.25634766 C40.91566566 64.59739043 42.13082664 66.93753594 43.34765625 69.27685547 C51.24548886 84.4649776 59.06476953 99.66551407 66.36669922 115.15136719 C68.73127853 120.15778659 71.14644299 125.13802556 73.57763672 130.11230469 C73.95412354 130.88263535 74.33061035 131.652966 74.71850586 132.44664001 C75.49703112 134.03935654 76.27557549 135.63206373 77.05413818 137.22476196 C84.47648904 152.41679434 91.72175384 167.67347785 98.77880859 183.0390625 C100.17347644 186.05109793 101.58488346 189.05400097 103.00813293 192.05256653 C104.19903487 194.56185978 105.38366891 197.07409282 106.56820679 199.58639526 C107.39012701 201.32315352 108.22063241 203.05584099 109.05151367 204.78833008 C112.53116747 212.18681728 115.15865044 219.59087 117.36279297 227.45996094 C117.6728125 228.53938965 117.98283203 229.61881836 118.30224609 230.73095703 C122.45420704 245.67051288 121.70726449 261.47331523 114.89013672 275.48730469 C107.66822091 287.93358512 95.30085193 295.00876508 81.99951172 299.62792969 C64.9030957 303.53935462 49.26294274 299.00912395 34.64624023 289.9699707 C29.24176229 286.4982673 24.20937462 282.67828201 19.36279297 278.45996094 C18.55583984 277.76257813 17.74888672 277.06519531 16.91748047 276.34667969 C10.46304429 270.65099384 4.39464428 264.59501883 -1.63720703 258.45996094 C-0.26818113 255.26813088 1.64222945 252.76916439 3.84008789 250.09741211 C27.53059621 221.28396068 43.81143837 185.36036569 40.36279297 147.45996094 C37.96199545 134.07951609 29.61930726 120.96233032 18.80029297 112.83496094 C3.46047736 102.53106059 -16.19626746 101.09858287 -34.13720703 103.84228516 C-47.08103871 106.77633758 -59.38538305 114.4827586 -66.69970703 125.59277344 C-68.86323768 129.12430971 -70.78614336 132.75678483 -72.63720703 136.45996094 C-73.09740234 137.36101562 -73.55759766 138.26207031 -74.03173828 139.19042969 C-81.28484619 156.54150408 -76.58553913 177.47757272 -70.63720703 194.45996094 C-70.37520508 195.21325684 -70.11320312 195.96655273 -69.84326172 196.74267578 C-61.92880648 218.82848578 -49.02326133 238.86604235 -33.63720703 256.45996094 C-35.54238147 260.61097753 -38.35059857 263.47753528 -41.57470703 266.64746094 C-42.15881348 267.22407471 -42.74291992 267.80068848 -43.34472656 268.39477539 C-59.2696561 283.93229498 -80.47999554 300.58474967 -103.82470703 300.83496094 C-119.19114759 300.5778453 -132.42492293 293.28060982 -143.44970703 282.83886719 C-146.93685344 279.04659547 -149.37731825 275.07154648 -151.63720703 270.45996094 C-152.04970703 269.71101563 -152.46220703 268.96207031 -152.88720703 268.19042969 C-155.89687775 261.72172769 -156.05170373 255.22522183 -156.13720703 248.20996094 C-156.1557373 247.28223877 -156.17426758 246.3545166 -156.19335938 245.39868164 C-156.05367276 229.52781676 -149.52797649 216.13390178 -142.69970703 202.20996094 C-141.84106846 200.43458858 -140.98366016 198.65862072 -140.12744141 196.88208008 C-138.42687095 193.3585574 -136.71944195 189.83851404 -135.00488281 186.32177734 C-132.9504716 182.10751345 -130.91132234 177.88619752 -128.88330078 173.65917969 C-126.76743736 169.25038014 -124.64701829 164.84386823 -122.52001953 160.44042969 C-120.26563304 155.76977654 -118.02784875 151.09150497 -115.79833984 146.40893555 C-113.42147911 141.42104728 -111.03111698 136.43968585 -108.63720703 131.45996094 C-108.32392456 130.80805786 -108.01064209 130.15615479 -107.68786621 129.48449707 C-97.92096991 109.17176405 -87.94694463 88.97248085 -77.69970703 68.89746094 C-77.23350952 67.98212585 -76.76731201 67.06679077 -76.2869873 66.12371826 C-46.91562072 8.51404754 -46.91562072 8.51404754 -37.19970703 2.20996094 C-36.47912109 1.73042969 -35.75853516 1.25089844 -35.01611328 0.75683594 C-25.61981135 -4.36561437 -9.61402608 -5.10907764 0 0 Z " fill="#FF5A5F" transform="translate(272.63720703125,98.5400390625)"/>
<path d="M0 0 C1.12535156 0.47566406 2.25070312 0.95132813 3.41015625 1.44140625 C22.60731328 10.05405925 30.62983046 26.03407636 39.9375 43.75 C40.6778442 45.15241467 41.41832612 46.55475663 42.15893555 47.95703125 C44.44894131 52.29965346 46.72688494 56.64851605 49 61 C49.35316284 61.67603271 49.70632568 62.35206543 50.07019043 63.04858398 C65.74306038 93.07742968 81.14564703 123.29512557 95.56396484 153.94824219 C96.9161829 156.82187797 98.27360597 159.69298737 99.63235474 162.5635376 C103.73201054 171.22657839 107.80641534 179.90130986 111.8682251 188.58215332 C113.04827396 191.10312919 114.22994296 193.62334216 115.41162109 196.14355469 C117.46675604 200.52928514 119.51381068 204.91871752 121.55587769 209.31054688 C122.34168001 210.99810702 123.12964742 212.68466099 123.91995239 214.37011719 C135.84269653 239.81346941 145.32364415 269.19460741 135.73193359 297.05419922 C131.65665216 307.88808615 126.46027188 316.95732837 118 325 C117.17435547 325.81984375 117.17435547 325.81984375 116.33203125 326.65625 C108.71291206 333.72980263 98.77961742 339.50366009 89 343 C88.18144531 343.29777344 87.36289062 343.59554688 86.51953125 343.90234375 C65.24888525 350.41254147 42.62394601 345.18180735 23.4375 335.25 C12.62380452 329.08683725 3.07819896 321.47615435 -6 313 C-7.39112536 311.78624946 -8.78671325 310.57758747 -10.1875 309.375 C-18.01325575 302.53742522 -18.01325575 302.53742522 -21 299 C-21 298.34 -21 297.68 -21 297 C-25.25362476 300.55302774 -29.2827063 304.24685661 -33.14331055 308.2265625 C-53.17678378 328.8244984 -79.13386861 345.58619132 -108.5625 346.375 C-130.48886685 345.87041834 -148.7086259 336.23800107 -164 321 C-164.70769531 320.31550781 -165.41539062 319.63101562 -166.14453125 318.92578125 C-172.07108339 312.795256 -175.68617643 305.76860918 -179 298 C-179.43699219 297.01257813 -179.87398438 296.02515625 -180.32421875 295.0078125 C-183.31986826 286.74612648 -183.44222445 278.46410378 -183.5625 269.75 C-183.58948975 268.57300537 -183.61647949 267.39601074 -183.64428711 266.18334961 C-183.57428315 249.91687399 -177.88993022 235.62325981 -170.8125 221.25 C-170.10689385 219.78856728 -169.40283653 218.32638592 -168.70019531 216.86352539 C-167.22455469 213.79476078 -165.74185867 210.72955363 -164.25439453 207.66650391 C-162.02111225 203.0571895 -159.83106023 198.42827999 -157.65234375 193.79296875 C-142.32210936 161.19184448 -126.46823041 128.85568561 -110.375 96.625 C-109.829646 95.53161316 -109.28429199 94.43822632 -108.72241211 93.31170654 C-102.32686515 80.49668371 -95.82920724 67.74741877 -89.11077881 55.09863281 C-87.71892848 52.46896186 -86.34423074 49.83058875 -84.97146606 47.19091797 C-83.44884103 44.26810529 -81.91033977 41.35364859 -80.375 38.4375 C-79.77171875 37.27154297 -79.1684375 36.10558594 -78.546875 34.90429688 C-74.68723918 27.60794279 -70.42259824 21.22361397 -65 15 C-64.1332666 14.00274902 -64.1332666 14.00274902 -63.24902344 12.98535156 C-48.56340247 -3.4032274 -20.11164991 -8.60178634 0 0 Z M-40 24 C-40.74121094 24.45117188 -41.48242188 24.90234375 -42.24609375 25.3671875 C-55.27701291 34.20096406 -61.50171 52.45922712 -68.45849609 66.00976562 C-70.13637969 69.26455154 -71.83999171 72.50464202 -73.55541992 75.73974609 C-93.8460595 114.01059659 -113.4333949 152.74207753 -131.43676758 192.14453125 C-134.3336946 198.47046389 -137.31739655 204.74667227 -140.375 210.99609375 C-140.75736816 211.77828278 -141.13973633 212.5604718 -141.53369141 213.36636353 C-143.40748397 217.19561694 -145.2884614 221.02112508 -147.1796875 224.84179688 C-156.85344582 244.47895205 -163.56603173 263.37964113 -159.3125 285.58984375 C-158.40297904 288.2312442 -157.34641813 290.55540957 -156 293 C-155.5875 293.84175781 -155.175 294.68351562 -154.75 295.55078125 C-147.89749425 308.37976218 -134.5721754 317.1895665 -121.0625 322 C-104.72500599 326.01131967 -89.12762418 321.0563665 -75.0625 312.6875 C-61.2950868 304.10472479 -49.30480398 292.56173134 -38 281 C-39.63572599 277.27516744 -41.97614051 274.36229161 -44.5 271.1875 C-58.79664718 252.83214722 -69.82307644 233.18232756 -77 211 C-77.22445801 210.34 -77.44891602 209.68 -77.68017578 209 C-82.76450116 193.76653393 -84.30878202 173.6858704 -77 159 C-76.57589844 158.07574219 -76.15179688 157.15148437 -75.71484375 156.19921875 C-68.79717333 142.26753152 -57.76313579 133.10770941 -43.3125 127.5 C-36.59900953 125.65337976 -29.87154725 125.61724119 -22.9375 125.5625 C-21.84928955 125.5521875 -20.7610791 125.541875 -19.63989258 125.53125 C-5.0253063 125.68994847 9.36974304 129.78963242 20.1953125 140.03125 C30.81693996 151.61847996 36.40286377 165.29811318 36.3125 180.9375 C36.30686035 181.95803467 36.3012207 182.97856934 36.29541016 184.0300293 C35.73143695 219.5128785 17.26245301 253.111141 -6 279 C2.24247649 297.27657811 29.10278074 314.02991567 47.0625 320.9375 C61.41224224 325.38680406 75.8029285 324.22505028 89.1484375 317.38671875 C101.71925303 310.38741282 109.83197883 302.43244636 114.4375 288.4375 C121.36414509 260.73091966 108.79665669 235.75187468 97.12664795 211.36151123 C95.1647483 207.24927009 93.22702515 203.12563273 91.28515625 199.00390625 C86.55837611 188.98585952 81.7881057 178.98886174 77 169 C76.67686829 168.32580017 76.35373657 167.65160034 76.02081299 166.95697021 C72.34146263 159.28356421 68.64026973 151.62084069 64.92382812 143.96533203 C63.51919594 141.0715792 62.11738272 138.17647513 60.71679688 135.28076172 C58.64374384 130.99499465 56.56705464 126.71100424 54.48828125 122.42800903 C53.68191009 120.76548458 52.87652098 119.10248334 52.07226562 117.43893433 C47.02727704 107.00754783 41.79222152 96.70010881 36.36132812 86.46435547 C34.2618584 82.50614309 32.20164407 78.52942691 30.1640625 74.5390625 C24.44646347 63.35585589 18.70209993 52.18045788 12.625 41.1875 C12.18623535 40.36523926 11.7474707 39.54297852 11.29541016 38.69580078 C6.78255692 30.68761657 -0.04193628 23.72701142 -8.86328125 20.625 C-18.93354106 18.61847252 -31.24923675 17.99844984 -40 24 Z " fill="#FFFDFD" transform="translate(277,76)"/>
<path d="M0 0 C6.41381392 5.17128539 10.61155862 11.49767753 12.7421875 19.45703125 C15.76714372 49.24204656 2.59801353 75.90596312 -14.5703125 99.26953125 C-15.07409424 99.95837402 -15.57787598 100.6472168 -16.09692383 101.35693359 C-16.5792749 101.99453613 -17.06162598 102.63213867 -17.55859375 103.2890625 C-17.98309814 103.85343018 -18.40760254 104.41779785 -18.8449707 104.99926758 C-20.4853801 106.69183445 -22.11125594 107.51696482 -24.2578125 108.45703125 C-44.65392875 84.76009425 -62.25532618 54.54684667 -60.43994141 22.37792969 C-59.56666219 13.16752632 -53.92700447 6.47531008 -47.2578125 0.45703125 C-34.44107914 -8.59985002 -12.97544514 -8.86730248 0 0 Z " fill="#FF5A5F" transform="translate(278.2578125,229.54296875)"/>
</svg>
