<svg xmlns="http://www.w3.org/2000/svg" width="512" height="512"><path fill="#FF5A5F" d="m70.57-.134 1.969-.007q3.27-.009 6.54-.006l4.732-.011q6.507-.014 13.014-.017 7.017-.007 14.033-.022c11.3-.02 22.6-.03 33.899-.039q7.986-.007 15.971-.015a96229 96229 0 0 1 70.347-.046c18.484-.008 36.968-.033 55.452-.066q28.477-.049 56.956-.054c10.657-.002 21.313-.01 31.969-.036q13.616-.034 27.232-.02c4.628.004 9.255.002 13.883-.017q6.368-.026 12.736-.001 2.291.004 4.581-.014c13.128-.096 25.55 1.968 37.304 8.13l1.996 1.028c18.74 10.056 30.545 27.08 36.87 47 1.442 5.102 2.072 9.603 2.08 14.917l.007 1.969q.009 3.27.006 6.54l.011 4.732q.014 6.507.017 13.014.007 7.017.022 14.033c.02 11.3.03 22.6.039 33.899q.007 7.986.015 15.971a96229 96229 0 0 1 .046 70.347c.008 18.484.033 36.968.066 55.452q.049 28.477.054 56.956c.002 10.657.01 21.313.036 31.969q.034 13.616.02 27.232c-.004 4.628-.002 9.255.017 13.883q.026 6.368.001 12.736-.004 2.291.014 4.581c.145 19.761-5.568 36.947-18.505 52.116l-1.934 2.508C481.388 501.387 464.195 509.244 448 512c-2.189.092-4.38.13-6.57.134l-1.969.007q-3.27.009-6.54.006l-4.732.011q-6.507.014-13.014.017-7.017.007-14.033.022c-11.3.02-22.6.03-33.899.039q-7.986.007-15.971.015a96229 96229 0 0 1-66.888.044l-3.46.002c-18.483.008-36.967.033-55.45.066q-28.48.049-56.957.054c-10.657.002-21.313.01-31.969.036q-13.616.034-27.232.02c-4.628-.004-9.255-.002-13.883.017q-6.368.026-12.736.001-2.291-.004-4.581.014C58.355 512.65 41.169 506.937 26 494l-2.504-1.926C10.704 481.444 2.696 464.207 0 448a163 163 0 0 1-.134-6.57l-.007-1.969q-.009-3.27-.006-6.54l-.011-4.732q-.014-6.507-.017-13.014-.007-7.017-.022-14.033c-.02-11.3-.03-22.6-.039-33.899q-.007-7.986-.015-15.971a96229 96229 0 0 1-.044-66.888l-.002-3.46c-.008-18.483-.033-36.967-.066-55.45q-.049-28.48-.054-56.957c-.002-10.657-.01-21.313-.036-31.969q-.034-13.616-.02-27.232c.004-4.628.002-9.255-.017-13.883q-.026-6.368-.001-12.736.004-2.291-.014-4.581c-.096-13.128 1.968-25.55 8.13-37.303l1.028-1.997c10.056-18.74 27.08-30.545 47-36.87C60.754.503 65.255-.127 70.57-.135"/><path fill="#FF5A5F" d="M272.637 98.54c10.419 6.438 15.45 14.995 20.738 25.585q1.11 2.164 2.227 4.324a1307 1307 0 0 1 4.397 8.611c2.16 4.263 4.376 8.493 6.603 12.72 1.928 3.665 3.833 7.34 5.737 11.016q1.82 3.512 3.646 7.02c7.898 15.189 15.717 30.39 23.019 45.875 2.364 5.007 4.78 9.987 7.21 14.961l1.142 2.335 2.335 4.778a2119 2119 0 0 1 21.725 45.814q2.093 4.517 4.23 9.014 1.784 3.764 3.56 7.533c.821 1.737 1.652 3.47 2.483 5.202 3.48 7.399 6.107 14.803 8.311 22.672l.94 3.271c4.151 14.94 3.404 30.742-3.413 44.756-7.222 12.447-19.589 19.522-32.89 24.141-17.097 3.911-32.737-.619-47.354-9.658-5.404-3.472-10.436-7.292-15.283-11.51l-2.445-2.113C283.1 369.19 277.032 363.135 271 357c1.369-3.192 3.28-5.69 5.477-8.363C300.167 319.824 316.45 283.9 313 246c-2.4-13.38-10.743-26.498-21.562-34.625-15.34-10.304-34.997-11.736-52.938-8.993-12.944 2.934-25.248 10.64-32.562 21.75-2.164 3.532-4.087 7.165-5.938 10.868l-1.395 2.73c-7.253 17.352-2.553 38.288 3.395 55.27l.794 2.283c7.914 22.086 20.82 42.123 36.206 59.717-1.905 4.151-4.713 7.018-7.937 10.188l-1.77 1.747c-15.925 15.537-37.136 32.19-60.48 32.44-15.367-.257-28.6-7.554-39.625-17.996-3.488-3.792-5.928-7.767-8.188-12.379l-1.25-2.27c-3.01-6.468-3.164-12.965-3.25-19.98l-.056-2.811c.14-15.871 6.665-29.265 13.494-43.189q1.288-2.663 2.572-5.328 2.55-5.284 5.122-10.56 3.081-6.322 6.122-12.663 3.173-6.613 6.363-13.219a2925 2925 0 0 0 6.722-14.031c2.377-4.988 4.767-9.97 7.161-14.949l.95-1.975c9.766-20.313 19.74-40.512 29.988-60.587l1.412-2.774c29.372-57.61 29.372-57.61 39.088-63.914.72-.48 1.44-.96 2.183-1.453 9.396-5.123 25.402-5.866 35.016-.757"/><path fill="#FFFDFD" d="m277 76 3.41 1.441c19.197 8.613 27.22 24.593 36.527 42.309l2.222 4.207Q322.592 130.473 326 137l1.07 2.049c15.673 30.028 31.076 60.246 45.494 90.9q2.03 4.309 4.068 8.615c4.1 8.663 8.174 17.337 12.236 26.018q1.77 3.781 3.544 7.562a4880 4880 0 0 1 6.144 13.167q1.179 2.53 2.364 5.06c11.923 25.442 21.404 54.824 11.812 82.683C408.657 383.888 403.46 392.957 395 401l-1.668 1.656C385.712 409.73 375.78 415.504 366 419l-2.48.902c-21.271 6.51-43.896 1.28-63.082-8.652-10.814-6.163-20.36-13.774-29.438-22.25a693 693 0 0 0-4.187-3.625c-7.826-6.838-7.826-6.838-10.813-10.375v-2c-4.254 3.553-8.283 7.247-12.143 11.227-20.034 20.597-45.99 37.36-75.42 38.148C146.512 421.87 128.291 412.238 113 397l-2.145-2.074C104.93 388.796 101.314 381.769 98 374l-1.324-2.992c-2.996-8.262-3.118-16.544-3.239-25.258l-.081-3.567c.07-16.266 5.754-30.56 12.832-44.933q1.058-2.192 2.112-4.386a2649 2649 0 0 1 4.446-9.197c2.233-4.61 4.423-9.239 6.602-13.874 15.33-32.601 31.184-64.937 47.277-97.168.545-1.093 1.09-2.187 1.653-3.313 6.395-12.815 12.893-25.565 19.611-38.213 1.392-2.63 2.767-5.268 4.14-7.908 1.522-2.923 3.06-5.837 4.596-8.754l1.828-3.533c3.86-7.296 8.124-13.68 13.547-19.904l1.751-2.015C228.437 72.597 256.888 67.398 277 76m-40 24-2.246 1.367c-13.031 8.834-19.256 27.092-26.212 40.643a949 949 0 0 1-5.097 9.73c-20.291 38.27-39.878 77.002-57.882 116.405a815 815 0 0 1-8.938 18.851l-1.159 2.37q-2.809 5.745-5.646 11.476c-9.673 19.637-16.386 38.538-12.132 60.748.909 2.641 1.966 4.965 3.312 7.41l1.25 2.55c6.853 12.83 20.178 21.64 33.688 26.45 16.337 4.011 31.934-.944 46-9.312C215.705 380.105 227.695 368.562 239 357c-1.636-3.725-3.976-6.638-6.5-9.812-14.297-18.356-25.323-38.006-32.5-60.188l-.68-2c-5.085-15.233-6.629-35.314.68-50l1.285-2.8c6.918-13.932 17.952-23.092 32.403-28.7 6.713-1.847 13.44-1.883 20.375-1.937l3.297-.032c14.615.159 29.01 4.259 39.835 14.5 10.622 11.587 16.208 25.267 16.118 40.906l-.018 3.093c-.564 35.483-19.033 69.081-42.295 94.97 8.242 18.277 35.103 35.03 53.063 41.938 14.35 4.449 28.74 3.287 42.085-3.551 12.571-7 20.684-14.955 25.29-28.95 6.926-27.706-5.641-52.685-17.311-77.075-1.962-4.113-3.9-8.236-5.842-12.358A5420 5420 0 0 0 354 245l-.98-2.043q-5.52-11.509-11.096-22.992a6904 6904 0 0 1-4.207-8.684q-3.11-6.429-6.229-12.853l-2.416-4.99a929 929 0 0 0-15.71-30.974c-2.1-3.958-4.16-7.935-6.198-11.925-5.718-11.183-11.462-22.359-17.539-33.351l-1.33-2.492c-4.512-8.008-11.337-14.969-20.158-18.071C258.067 94.618 245.75 93.998 237 100"/><path fill="#FF5A5F" d="M278.258 229.543c6.414 5.171 10.611 11.498 12.742 19.457 3.025 29.785-10.144 56.449-27.312 79.813l-1.527 2.087-1.462 1.932-1.286 1.71c-1.64 1.693-3.266 2.518-5.413 3.458-20.396-23.697-37.998-53.91-36.182-86.08.873-9.21 6.513-15.902 13.182-21.92 12.817-9.057 34.282-9.324 47.258-.457"/></svg>